<?xml version="1.0" encoding="UTF-8" standalone="no"?>
<svg width="140.19359mm" height="93.789383mm" viewBox="0 0 496.74893 332.32458" version="1.1" id="svg26" xmlns="http://www.w3.org/2000/svg" xmlns:svg="http://www.w3.org/2000/svg">
  <defs id="defs30">
    <clipPath clipPathUnits="userSpaceOnUse" id="clipPath3">
      <path id="path4" style="fill:#0693d5;fill-opacity:1;stroke-width:17.0079;stroke-miterlimit:4;stroke-dasharray:none" d="M 231.04065,8.4649659 C 201.36242,8.4917006 174.57915,26.135871 163.03162,53.226929 151.75389,46.685865 138.93777,43.24671 125.87036,43.21106 c -40.830054,0 -73.925169,32.794815 -73.925169,73.25317 0.03597,8.26099 1.47474,16.45973 4.262695,24.23951 -28.347207,8.7333 -48.5173201,37.50049 -47.6641847,64.11804 1.5786867,49.25452 44.9788397,112.65988 133.0279587,93.6438 46.416,50.44183 87.70015,53.41152 145.71151,21.52405 10.08817,3.98811 20.84805,6.03871 31.71387,6.06994 35.54019,0 66.6191,-21.52363 79.58496,-53.57849 17.36529,0.24093 34.50414,0.52533 51.19629,0.91553 30.64952,0 55.48828,-24.61424 55.48828,-54.98474 0,-18.62511 -9.52326,-35.97538 -25.2887,-46.10779 1.67277,-6.14005 2.5528,-12.47689 2.5708,-18.83972 0,-40.45835 -33.09511,-73.253178 -73.92517,-73.253178 -7.60842,0.01782 -15.5571,1.134541 -22.80579,3.451539 -8.74159,-31.921109 -37.57502,-54.050904 -70.94055,-54.050904 -9.29918,0.02674 -18.50989,1.783416 -27.14355,5.196533 C 273.70405,18.143785 252.94875,8.4917009 231.04981,8.4649659 Z" />
    </clipPath>
  </defs>
  <path id="path14" style="fill:#0693d5;fill-opacity:1;stroke-width:17.0079;stroke-miterlimit:4;stroke-dasharray:none" d="m 222.52302,0 c -29.67823,0.0267346 -56.4615,17.670905 -68.00903,44.761963 -11.27773,-6.541064 -24.09385,-9.980219 -37.16126,-10.015869 -40.830051,0 -73.925166,32.794815 -73.925166,73.253166 0.03597,8.26099 1.47474,16.45973 4.262695,24.23951 -28.347207,8.7333 -48.51732054,37.50049 -47.66418514,64.11804 1.57868674,49.25452 44.97884014,112.65988 133.02795614,93.6438 46.416,50.44183 87.70015,53.41152 145.71151,21.52405 10.08817,3.98811 20.84805,6.03871 31.71387,6.06994 35.54019,0 66.6191,-21.52363 79.58496,-53.57849 17.36529,0.24093 34.50414,0.52533 51.19629,0.91553 30.64952,0 55.48828,-24.61424 55.48828,-54.98474 0,-18.62511 -9.52326,-35.97538 -25.2887,-46.10779 1.67277,-6.14005 2.5528,-12.47689 2.5708,-18.83972 0,-40.45835 -33.09511,-73.253174 -73.92517,-73.253174 -7.60842,0.01782 -15.5571,1.134541 -22.80579,3.451539 -8.74159,-31.921109 -37.57502,-54.050904 -70.94055,-54.050904 -9.29918,0.02674 -18.50989,1.783416 -27.14355,5.196533 C 265.18642,9.6788191 244.43112,0.026735 222.53218,0 Z" />
  <g id="g3" clip-path="url(#clipPath3)" transform="translate(-8.5176274,-8.4649659)">
    <g id="g1" transform="translate(0,-17.599225)">
      <path style="fill:none;stroke:#ffffff;stroke-width:17.0079;stroke-linecap:butt;stroke-linejoin:round;stroke-miterlimit:4;stroke-dasharray:none;stroke-opacity:1" d="M 185.96138,381.44639 V 229.29102 h -59.35139" id="path4642" />
      <circle style="font-variation-settings:normal;vector-effect:none;fill:none;fill-opacity:1;stroke:#ffffff;stroke-width:17.0079;stroke-linecap:butt;stroke-linejoin:miter;stroke-miterlimit:4;stroke-dasharray:none;stroke-dashoffset:0;stroke-opacity:1;-inkscape-stroke:none;stop-color:#000000" id="path4755" cx="103.52539" cy="-230.06583" r="28.885059" transform="scale(1,-1)" />
    </g>
    <g id="g4904" transform="translate(-1.0488702,-228.48073)" style="font-variation-settings:normal;opacity:1;vector-effect:none;fill:none;fill-opacity:1;stroke:#ffffff;stroke-width:17.0079;stroke-linecap:butt;stroke-linejoin:round;stroke-miterlimit:4;stroke-dasharray:none;stroke-dashoffset:0;stroke-opacity:1;-inkscape-stroke:none;stop-color:#000000;stop-opacity:1">
      <path style="font-variation-settings:normal;vector-effect:none;fill:none;fill-opacity:1;stroke:#ffffff;stroke-width:17.0079;stroke-linecap:butt;stroke-linejoin:round;stroke-miterlimit:4;stroke-dasharray:none;stroke-dashoffset:0;stroke-opacity:1;-inkscape-stroke:none;stop-color:#000000;stop-opacity:1" d="m 192.55189,224.99755 v 170.98992 h 64.35392 v 69.34504" id="path4644" />
      <circle style="font-variation-settings:normal;opacity:1;vector-effect:none;fill:none;fill-opacity:1;stroke:#ffffff;stroke-width:17.0079;stroke-linecap:butt;stroke-linejoin:round;stroke-miterlimit:4;stroke-dasharray:none;stroke-dashoffset:0;stroke-opacity:1;-inkscape-stroke:none;stop-color:#000000;stop-opacity:1" id="circle4891" cx="257.50748" cy="485.94617" r="28.885059" />
    </g>
    <g id="g4900" transform="rotate(180,325.67879,269.83374)" style="font-variation-settings:normal;opacity:1;vector-effect:none;fill:none;fill-opacity:1;stroke:#ffffff;stroke-width:17.0079;stroke-linecap:round;stroke-linejoin:miter;stroke-miterlimit:4;stroke-dasharray:none;stroke-dashoffset:0;stroke-opacity:1;-inkscape-stroke:none;stop-color:#000000;stop-opacity:1">
      <path style="font-variation-settings:normal;vector-effect:none;fill:none;fill-opacity:1;stroke:#ffffff;stroke-width:17.0079;stroke-linecap:butt;stroke-linejoin:round;stroke-miterlimit:4;stroke-dasharray:none;stroke-dashoffset:0;stroke-opacity:1;-inkscape-stroke:none;stop-color:#000000;stop-opacity:1" d="m 313.47654,148.0522 v 298.97866 h 49.68934" id="path4726" />
      <circle style="font-variation-settings:normal;opacity:1;vector-effect:none;fill:none;fill-opacity:1;stroke:#ffffff;stroke-width:17.0079;stroke-linecap:round;stroke-linejoin:miter;stroke-miterlimit:4;stroke-dasharray:none;stroke-dashoffset:0;stroke-opacity:1;-inkscape-stroke:none;stop-color:#000000;stop-opacity:1" id="circle4893" cx="391.36224" cy="446.23611" r="28.885059" />
    </g>
    <g id="g2" transform="rotate(-90,249.16968,288.69305)" style="font-variation-settings:normal;opacity:1;vector-effect:none;fill:none;fill-opacity:1;stroke:#ffffff;stroke-width:17.0079;stroke-linecap:round;stroke-linejoin:miter;stroke-miterlimit:4;stroke-dasharray:none;stroke-dashoffset:0;stroke-opacity:1;-inkscape-stroke:none;stop-color:#000000;stop-opacity:1">
      <path style="font-variation-settings:normal;vector-effect:none;fill:none;fill-opacity:1;stroke:#ffffff;stroke-width:17.0079;stroke-linecap:butt;stroke-linejoin:round;stroke-miterlimit:4;stroke-dasharray:none;stroke-dashoffset:0;stroke-opacity:1;-inkscape-stroke:none;stop-color:#000000;stop-opacity:1" d="m 328.64108,376.16547 v 70.86539 h 34.5248" id="path1" />
      <circle style="font-variation-settings:normal;opacity:1;vector-effect:none;fill:none;fill-opacity:1;stroke:#ffffff;stroke-width:17.0079;stroke-linecap:round;stroke-linejoin:miter;stroke-miterlimit:4;stroke-dasharray:none;stroke-dashoffset:0;stroke-opacity:1;-inkscape-stroke:none;stop-color:#000000;stop-opacity:1" id="circle1" cx="391.36224" cy="446.23611" r="28.885059" />
    </g>
  </g>
</svg>
